<svg width="15" height="16" viewBox="0 0 15 16" fill="none" xmlns="http://www.w3.org/2000/svg">
<path d="M13.5 1.42105H12.75V0.710526C12.75 0.319737 12.4125 0 12 0C11.5875 0 11.25 0.319737 11.25 0.710526V1.42105H3.75V0.710526C3.75 0.319737 3.4125 0 3 0C2.5875 0 2.25 0.319737 2.25 0.710526V1.42105H1.5C0.675 1.42105 0 2.06053 0 2.84211V14.2105C0 14.9921 0.675 15.6316 1.5 15.6316H13.5C14.325 15.6316 15 14.9921 15 14.2105V2.84211C15 2.06053 14.325 1.42105 13.5 1.42105ZM12.75 14.2105H2.25C1.8375 14.2105 1.5 13.8908 1.5 13.5V4.97368H13.5V13.5C13.5 13.8908 13.1625 14.2105 12.75 14.2105Z" fill="black"/>
</svg>
