<svg width="12" height="12" viewBox="0 0 12 12" fill="none" xmlns="http://www.w3.org/2000/svg">
<path d="M10.8243 8.18318L9.12754 7.98946C8.72005 7.9427 8.31924 8.08298 8.03199 8.37023L6.80285 9.59937C4.91236 8.63743 3.36257 7.09432 2.40063 5.19716L3.63646 3.96133C3.9237 3.67408 4.06398 3.27327 4.01722 2.86578L3.8235 1.18239C3.74334 0.507691 3.17552 0 2.49415 0H1.33848C0.583627 0 -0.0443071 0.627934 0.00245394 1.38279C0.356502 7.08764 4.91904 11.6435 10.6172 11.9975C11.3721 12.0443 12 11.4164 12 10.6615V9.50585C12.0067 8.83116 11.499 8.26334 10.8243 8.18318Z" fill="black"/>
</svg>
