<svg width="18" height="18" viewBox="0 0 18 18" fill="none" xmlns="http://www.w3.org/2000/svg">
<path d="M16.2364 12.2747L13.6913 11.9841C13.08 11.914 12.4788 12.1244 12.0479 12.5553L10.2042 14.399C7.36852 12.9561 5.04383 10.6414 3.60093 7.7957L5.45466 5.94197C5.88553 5.5111 6.09595 4.90989 6.02581 4.29866L5.73523 1.77357C5.61498 0.761534 4.76327 0 3.74121 0H2.00772C0.875437 0 -0.0664604 0.941897 0.00368089 2.07418C0.534751 10.6314 7.37854 17.4652 15.9258 17.9962C17.058 18.0664 17.9999 17.1245 17.9999 15.9922V14.2587C18.0099 13.2467 17.2484 12.395 16.2364 12.2747Z" fill="black"/>
</svg>
