<svg width="6" height="22" viewBox="0 0 6 22" fill="none" xmlns="http://www.w3.org/2000/svg">
<path d="M2.75 5.5C4.2625 5.5 5.5 4.2625 5.5 2.75C5.5 1.2375 4.2625 0 2.75 0C1.2375 0 0 1.2375 0 2.75C0 4.2625 1.2375 5.5 2.75 5.5ZM2.75 8.25C1.2375 8.25 0 9.4875 0 11C0 12.5125 1.2375 13.75 2.75 13.75C4.2625 13.75 5.5 12.5125 5.5 11C5.5 9.4875 4.2625 8.25 2.75 8.25ZM2.75 16.5C1.2375 16.5 0 17.7375 0 19.25C0 20.7625 1.2375 22 2.75 22C4.2625 22 5.5 20.7625 5.5 19.25C5.5 17.7375 4.2625 16.5 2.75 16.5Z" fill="black"/>
</svg>
